<svg width="92" height="24" viewBox="0 0 92 24" fill="none" xmlns="http://www.w3.org/2000/svg">
<path fill-rule="evenodd" clip-rule="evenodd" d="M8.9604 5.9736C8.9604 2.6745 11.6349 0 14.934 0C18.2331 0 20.9076 2.6745 20.9076 5.9736C20.9076 9.2727 18.2331 11.9472 14.934 11.9472H11.9472V20.9076H8.9604V11.9472H5.9736C4.32675 11.9472 2.9868 13.287 2.9868 14.934C2.9868 16.5809 4.32675 17.9208 5.9736 17.9208H7.09365V20.9076H5.9736C2.6745 20.9076 0 18.2331 0 14.934C0 11.6348 2.6745 8.9604 5.9736 8.9604H14.934C16.5809 8.9604 17.9208 7.62045 17.9208 5.9736C17.9208 4.32675 16.5809 2.9868 14.934 2.9868C13.2872 2.9868 11.9472 4.32675 11.9472 5.9736V7.09365H8.9604V5.9736ZM76.1057 3.51765C77.1875 3.51765 78.062 4.3464 78.062 5.42835C78.062 6.50985 77.1875 7.33845 76.1057 7.33845C75.024 7.33845 74.1497 6.50985 74.1497 5.42835C74.1497 4.3464 75.024 3.51765 76.1057 3.51765ZM35.1666 11.7322V9.17205H31.4836V6.2196H28.497V9.17205H25.389V11.7322H28.497V15.6046C28.497 17.4307 28.8481 18.5243 29.6037 19.2799C30.6315 20.3077 32.0173 20.5609 33.1875 20.5609C34.5885 20.5609 35.04 20.331 35.04 20.331V17.8002C35.04 17.8002 34.3791 17.9145 33.2997 17.9145C32.9445 17.9145 32.3205 17.8346 31.9171 17.4314C31.5658 17.0799 31.4836 16.4991 31.4836 16.0099V11.7322H35.1666ZM43.4638 8.94166C42.2097 8.94166 41.098 9.38131 40.4136 10.0656C40.2768 10.2026 40.203 10.2993 40.203 10.2993V9.17206H37.3274V20.331H40.314V13.3442C40.617 12.8589 41.5144 11.7035 43.2345 11.7035C43.8795 11.7035 44.4592 11.8179 44.4592 11.8179V9.03391C44.4592 9.03391 43.9428 8.94166 43.4638 8.94166ZM67.5922 9.17205H70.7422L63.8821 24H60.7533L63.0144 19.2037H63.0143L63.0144 19.2036L58.0209 9.17205H61.3117L64.557 15.8232L67.5922 9.17205ZM51.0843 17.7997C49.4763 17.7997 48.1419 16.5774 48.1419 14.763C48.1419 13.0281 49.3778 11.7028 51.0153 11.7028C52.6713 11.7028 53.61 12.8221 53.7761 13.0381V16.4689C53.6112 16.6986 52.7357 17.7997 51.0843 17.7997ZM53.8968 9.17204V10.0576C53.8212 9.99434 52.5339 8.94209 50.634 8.94209C47.6192 8.94209 45.1488 11.445 45.1488 14.763C45.1488 18.1015 47.6988 20.5609 50.7692 20.5609C52.6817 20.5609 53.7872 19.5513 53.8911 19.4524V20.331H56.7627V9.17204H53.8968ZM72.6075 18.5997C72.6075 17.4889 71.7108 16.638 70.6017 16.638C69.4926 16.638 68.5961 17.4889 68.5961 18.5997C68.5961 19.7101 69.4926 20.5609 70.6017 20.5609C71.7108 20.5609 72.6075 19.7101 72.6075 18.5997ZM77.5993 20.331H74.6127V9.17205H77.5993V20.331ZM85.5406 17.8002C83.913 17.8002 82.5936 16.5696 82.5936 14.7515C82.5936 12.9632 83.913 11.7029 85.5406 11.7029C87.168 11.7029 88.4874 12.9632 88.4874 14.7515C88.4874 16.5696 87.168 17.8002 85.5406 17.8002ZM85.5406 8.94166C82.2614 8.94166 79.6031 11.472 79.6031 14.7515C79.6031 18.0311 82.2614 20.5613 85.5406 20.5613C88.8197 20.5613 91.4781 18.0311 91.4781 14.7515C91.4781 11.472 88.8197 8.94166 85.5406 8.94166Z" fill="#0B0E35"/>
</svg>
